<svg width="20" height="19" viewBox="0 0 20 19" fill="none" xmlns="http://www.w3.org/2000/svg">
<mask id="mask0_1_107" style="mask-type:alpha" maskUnits="userSpaceOnUse" x="0" y="0" width="20" height="19">
<rect width="20" height="18.6667" fill="#D9D9D9"/>
</mask>
<g mask="url(#mask0_1_107)">
<path d="M5.83337 16.3334C5.37504 16.3334 4.98282 16.1812 4.65671 15.8768C4.33004 15.5719 4.16671 15.2056 4.16671 14.7778V4.66669H3.33337V3.11114H7.50004V2.33336H12.5V3.11114H16.6667V4.66669H15.8334V14.7778C15.8334 15.2056 15.6703 15.5719 15.3442 15.8768C15.0175 16.1812 14.625 16.3334 14.1667 16.3334H5.83337ZM14.1667 4.66669H5.83337V14.7778H14.1667V4.66669ZM7.50004 13.2222H9.16671V6.22225H7.50004V13.2222ZM10.8334 13.2222H12.5V6.22225H10.8334V13.2222Z" fill="white"/>
</g>
</svg>
