<svg width="38" height="38" viewBox="0 0 38 38" fill="none" xmlns="http://www.w3.org/2000/svg">
<rect width="38" height="38" rx="19" fill="#9AFFB0" fill-opacity="0.69"/>
<mask id="mask0_7_115" style="mask-type:alpha" maskUnits="userSpaceOnUse" x="7" y="7" width="24" height="24">
<rect x="7" y="7" width="24" height="24" fill="#D9D9D9"/>
</mask>
<g mask="url(#mask0_7_115)">
<path d="M12 28C11.45 28 10.979 27.8043 10.587 27.413C10.1957 27.021 10 26.55 10 26V12C10 11.45 10.1957 10.979 10.587 10.587C10.979 10.1957 11.45 10 12 10H16.2C16.4167 9.4 16.7793 8.91667 17.288 8.55C17.796 8.18333 18.3667 8 19 8C19.6333 8 20.2043 8.18333 20.713 8.55C21.221 8.91667 21.5833 9.4 21.8 10H26C26.55 10 27.021 10.1957 27.413 10.587C27.8043 10.979 28 11.45 28 12V26C28 26.55 27.8043 27.021 27.413 27.413C27.021 27.8043 26.55 28 26 28H12ZM12 26H26V12H12V26ZM14 24H21V22H14V24ZM14 20H24V18H14V20ZM14 16H24V14H14V16ZM19 11.25C19.2167 11.25 19.396 11.179 19.538 11.037C19.6793 10.8957 19.75 10.7167 19.75 10.5C19.75 10.2833 19.6793 10.104 19.538 9.962C19.396 9.82067 19.2167 9.75 19 9.75C18.7833 9.75 18.6043 9.82067 18.463 9.962C18.321 10.104 18.25 10.2833 18.25 10.5C18.25 10.7167 18.321 10.8957 18.463 11.037C18.6043 11.179 18.7833 11.25 19 11.25Z" fill="#4CA565"/>
</g>
</svg>
